<svg id="drawing" xmlns="http://www.w3.org/2000/svg" version="1.1" xmlns:xlink="http://www.w3.org/1999/xlink" xmlns:svgjs="http://svgjs.com/svgjs" width="581" height="526" viewBox="190 219 581 526"><defs id="SvgjsDefs1001"><marker id="SvgjsMarker1036" markerWidth="16.23606797749979" markerHeight="10.550836550532098" refX="-1" refY="3.8990363547948754" viewBox="-1 -1.3763819204711738 16.23606797749979 10.550836550532098" orient="auto" markerUnits="userSpaceOnUse"><path id="SvgjsPath1037" d="M12 3.8990363547948754L0 7.798072709589751V0Z " stroke="#ffb366" stroke-width="2" fill="#ffb366" transform="matrix(1,0,0,1,0,0)"></path></marker><marker id="SvgjsMarker1043" markerWidth="16.23606797749979" markerHeight="10.550836550532098" refX="-1" refY="3.8990363547948754" viewBox="-1 -1.3763819204711738 16.23606797749979 10.550836550532098" orient="auto" markerUnits="userSpaceOnUse"><path id="SvgjsPath1044" d="M12 3.8990363547948754L0 7.798072709589751V0Z " stroke="#ffb366" stroke-width="2" fill="#ffb366" transform="matrix(1,0,0,1,0,0)"></path></marker><marker id="SvgjsMarker1050" markerWidth="16.23606797749979" markerHeight="10.550836550532098" refX="-1" refY="3.8990363547948754" viewBox="-1 -1.3763819204711738 16.23606797749979 10.550836550532098" orient="auto" markerUnits="userSpaceOnUse"><path id="SvgjsPath1051" d="M12 3.8990363547948754L0 7.798072709589751V0Z " stroke="#ffb366" stroke-width="2" fill="#ffb366" transform="matrix(1,0,0,1,0,0)"></path></marker><marker id="SvgjsMarker1057" markerWidth="16.23606797749979" markerHeight="10.550836550532098" refX="-1" refY="3.8990363547948754" viewBox="-1 -1.3763819204711738 16.23606797749979 10.550836550532098" orient="auto" markerUnits="userSpaceOnUse"><path id="SvgjsPath1058" d="M12 3.8990363547948754L0 7.798072709589751V0Z " stroke="#ffb366" stroke-width="2" fill="#ffb366" transform="matrix(1,0,0,1,0,0)"></path></marker><marker id="SvgjsMarker1064" markerWidth="16.23606797749979" markerHeight="10.550836550532098" refX="-1" refY="3.8990363547948754" viewBox="-1 -1.3763819204711738 16.23606797749979 10.550836550532098" orient="auto" markerUnits="userSpaceOnUse"><path id="SvgjsPath1065" d="M12 3.8990363547948754L0 7.798072709589751V0Z " stroke="#ffb366" stroke-width="2" fill="#ffb366" transform="matrix(1,0,0,1,0,0)"></path></marker><marker id="SvgjsMarker1071" markerWidth="16.23606797749979" markerHeight="10.550836550532098" refX="-1" refY="3.8990363547948754" viewBox="-1 -1.3763819204711738 16.23606797749979 10.550836550532098" orient="auto" markerUnits="userSpaceOnUse"><path id="SvgjsPath1072" d="M12 3.8990363547948754L0 7.798072709589751V0Z " stroke="#00994d" stroke-width="2" fill="#00994d" transform="matrix(1,0,0,1,0,0)"></path></marker><marker id="SvgjsMarker1078" markerWidth="16.23606797749979" markerHeight="10.550836550532098" refX="-1" refY="3.8990363547948754" viewBox="-1 -1.3763819204711738 16.23606797749979 10.550836550532098" orient="auto" markerUnits="userSpaceOnUse"><path id="SvgjsPath1079" d="M12 3.8990363547948754L0 7.798072709589751V0Z " stroke="#00994d" stroke-width="2" fill="#00994d" transform="matrix(1,0,0,1,0,0)"></path></marker><marker id="SvgjsMarker1085" markerWidth="16.23606797749979" markerHeight="10.550836550532098" refX="-1" refY="3.8990363547948754" viewBox="-1 -1.3763819204711738 16.23606797749979 10.550836550532098" orient="auto" markerUnits="userSpaceOnUse"><path id="SvgjsPath1086" d="M12 3.8990363547948754L0 7.798072709589751V0Z " stroke="#00994d" stroke-width="2" fill="#00994d" transform="matrix(1,0,0,1,0,0)"></path></marker><marker id="SvgjsMarker1092" markerWidth="16.23606797749979" markerHeight="10.550836550532098" refX="-1" refY="3.8990363547948754" viewBox="-1 -1.3763819204711738 16.23606797749979 10.550836550532098" orient="auto" markerUnits="userSpaceOnUse"><path id="SvgjsPath1093" d="M12 3.8990363547948754L0 7.798072709589751V0Z " stroke="#00994d" stroke-width="2" fill="#00994d" transform="matrix(1,0,0,1,0,0)"></path></marker><marker id="SvgjsMarker1099" markerWidth="16.23606797749979" markerHeight="10.550836550532098" refX="-1" refY="3.8990363547948754" viewBox="-1 -1.3763819204711738 16.23606797749979 10.550836550532098" orient="auto" markerUnits="userSpaceOnUse"><path id="SvgjsPath1100" d="M12 3.8990363547948754L0 7.798072709589751V0Z " stroke="#00994d" stroke-width="2" fill="#00994d" transform="matrix(1,0,0,1,0,0)"></path></marker></defs><g id="SvgjsG1007"><path id="SvgjsPath1008" d="M190 219H771V745H190V219Z " fill-opacity="0" fill="none"></path><g id="SvgjsG1009"><g id="SvgjsG1010" transform="translate(425 239)" opacity="1"><path id="SvgjsPath1011" d="M16.666666666666668 0L83.33333333333333 0C105.55555555555556 0 105.55555555555556 50 83.33333333333333 50L16.666666666666668 50C-5.555555555555556 50 -5.555555555555556 0 16.666666666666668 0Z " stroke-dasharray="none" stroke="#323232" stroke-width="2" fill="#ffffff" opacity="1"></path><g id="SvgjsG1012" transform="matrix(1 0 0 1 10 16.875)" fill="#ffffff"><text id="SvgjsText1013" font-family="微软雅黑,黑体,Arial,SimSun" fill="#000000" font-size="13" font-weight="normal" font-style="normal" text-anchor="middle" text-decoration="blink" x="40" y="12">Window</text></g></g><g id="SvgjsG1014" transform="translate(425 333)" opacity="1"><path id="SvgjsPath1015" d="M16.666666666666668 0L83.33333333333333 0C105.55555555555556 0 105.55555555555556 50 83.33333333333333 50L16.666666666666668 50C-5.555555555555556 50 -5.555555555555556 0 16.666666666666668 0Z " stroke-dasharray="none" stroke="#323232" stroke-width="2" fill="#ffffff" opacity="1"></path><g id="SvgjsG1016" transform="matrix(1 0 0 1 10 16.875)" fill="#ffffff"><text id="SvgjsText1017" font-family="微软雅黑,黑体,Arial,SimSun" fill="#000000" font-size="13" font-weight="normal" font-style="normal" text-anchor="middle" text-decoration="blink" x="40" y="12">Document</text></g></g><g id="SvgjsG1018" transform="translate(425 416)" opacity="1"><path id="SvgjsPath1019" d="M16.666666666666668 0L83.33333333333333 0C105.55555555555556 0 105.55555555555556 50 83.33333333333333 50L16.666666666666668 50C-5.555555555555556 50 -5.555555555555556 0 16.666666666666668 0Z " stroke-dasharray="none" stroke="#323232" stroke-width="2" fill="#ffffff" opacity="1"></path><g id="SvgjsG1020" transform="matrix(1 0 0 1 10 16.875)" fill="#ffffff"><text id="SvgjsText1021" font-family="微软雅黑,黑体,Arial,SimSun" fill="#000000" font-size="13" font-weight="normal" font-style="normal" text-anchor="middle" text-decoration="blink" x="40" y="12">&lt;html&gt;</text></g></g><g id="SvgjsG1022" transform="translate(425 506)" opacity="1"><path id="SvgjsPath1023" d="M16.666666666666668 0L83.33333333333333 0C105.55555555555556 0 105.55555555555556 50 83.33333333333333 50L16.666666666666668 50C-5.555555555555556 50 -5.555555555555556 0 16.666666666666668 0Z " stroke-dasharray="none" stroke="#323232" stroke-width="2" fill="#ffffff" opacity="1"></path><g id="SvgjsG1024" transform="matrix(1 0 0 1 10 16.875)" fill="#ffffff"><text id="SvgjsText1025" font-family="微软雅黑,黑体,Arial,SimSun" fill="#000000" font-size="13" font-weight="normal" font-style="normal" text-anchor="middle" text-decoration="blink" x="40" y="12">&lt;body&gt;</text></g></g><g id="SvgjsG1026" transform="translate(404 591)" opacity="1"><path id="SvgjsPath1027" d="M16.666666666666668 0L120.33333333333333 0C142.55555555555554 0 142.55555555555554 50 120.33333333333333 50L16.666666666666668 50C-5.555555555555556 50 -5.555555555555556 0 16.666666666666668 0Z " stroke-dasharray="none" stroke="#323232" stroke-width="2" fill="#ffffff" opacity="1"></path><g id="SvgjsG1028" transform="matrix(1 0 0 1 10 16.875)" fill="#ffffff"><text id="SvgjsText1029" font-family="微软雅黑,黑体,Arial,SimSun" fill="#000000" font-size="13" font-weight="normal" font-style="normal" text-anchor="middle" text-decoration="blink" x="58.5" y="12">&lt;div id="wrap"&gt;</text></g></g><g id="SvgjsG1030" transform="translate(404 679)" opacity="1"><path id="SvgjsPath1031" d="M15.333333333333334 0L126.16666666666667 0C146.61111111111111 0 146.61111111111111 46 126.16666666666667 46L15.333333333333334 46C-5.111111111111112 46 -5.111111111111112 0 15.333333333333334 0Z " stroke-dasharray="none" stroke="#323232" stroke-width="2" fill="#ffffff" opacity="1"></path><g id="SvgjsG1032" transform="matrix(1 0 0 1 10 14.875)" fill="#ffffff"><text id="SvgjsText1033" font-family="微软雅黑,黑体,Arial,SimSun" fill="#000000" font-size="13" font-weight="normal" font-style="normal" text-anchor="middle" text-decoration="blink" x="60.75" y="12">&lt;button class="btn"&gt;</text></g></g><g id="SvgjsG1034"><path id="SvgjsPath1035" d="M421 269C422.95746170843415 301.4862148974674 280 287 411.9135379830409 344.1579704064188 " stroke-dasharray="none" stroke="#ffb366" stroke-width="2" fill="none" marker-end="url(#SvgjsMarker1036)"></path><g id="SvgjsG1038" transform="matrix(1 0 0 1 367.72324038854293 289.20207688735263)"><path id="SvgjsPath1039" d="M0 0H0V0H0V0Z " fill="#ffffff" transform="translate(0 0)"></path><text id="SvgjsText1040" font-family="Microsoft Yahei,SimSun" fill="#000000" font-size="13" font-weight="normal" font-style="normal" text-anchor="middle" text-decoration="blink" x="0" y="0"></text></g></g><g id="SvgjsG1041"><path id="SvgjsPath1042" d="M422 353C385 354 281 371 412.9135379830409 428.1579704064188 " stroke-dasharray="none" stroke="#ffb366" stroke-width="2" fill="none" marker-end="url(#SvgjsMarker1043)"></path><g id="SvgjsG1045" transform="matrix(1 0 0 1 354.1141922478801 361.39474630080235)"><path id="SvgjsPath1046" d="M0 0H0V0H0V0Z " fill="#ffffff" transform="translate(0 0)"></path><text id="SvgjsText1047" font-family="Microsoft Yahei,SimSun" fill="#000000" font-size="13" font-weight="normal" font-style="normal" text-anchor="middle" text-decoration="blink" x="0" y="0"></text></g></g><g id="SvgjsG1048"><path id="SvgjsPath1049" d="M423 449C375 447 282 467 413.9135379830409 524.1579704064188 " stroke-dasharray="none" stroke="#ffb366" stroke-width="2" fill="none" marker-end="url(#SvgjsMarker1050)"></path><g id="SvgjsG1052" transform="matrix(1 0 0 1 350.9891922478801 456.26974630080235)"><path id="SvgjsPath1053" d="M0 0H0V0H0V0Z " fill="#ffffff" transform="translate(0 0)"></path><text id="SvgjsText1054" font-family="Microsoft Yahei,SimSun" fill="#000000" font-size="13" font-weight="normal" font-style="normal" text-anchor="middle" text-decoration="blink" x="0" y="0"></text></g></g><g id="SvgjsG1055"><path id="SvgjsPath1056" d="M427 538C377 537 282 605 388.82548803390426 614.6318062981389 " stroke-dasharray="none" stroke="#ffb366" stroke-width="2" fill="none" marker-end="url(#SvgjsMarker1057)"></path><g id="SvgjsG1059" transform="matrix(1 0 0 1 349.103186004238 564.2039757872674)"><path id="SvgjsPath1060" d="M0 0H0V0H0V0Z " fill="#ffffff" transform="translate(0 0)"></path><text id="SvgjsText1061" font-family="Microsoft Yahei,SimSun" fill="#000000" font-size="13" font-weight="normal" font-style="normal" text-anchor="middle" text-decoration="blink" x="0" y="0"></text></g></g><g id="SvgjsG1062"><path id="SvgjsPath1063" d="M402 630C297 649 375.1888910314094 702 388.7639320225002 702 " stroke-dasharray="none" stroke="#ffb366" stroke-width="2" fill="none" marker-end="url(#SvgjsMarker1064)"></path><g id="SvgjsG1066" transform="matrix(1 0 0 1 350.9163256395911 665)"><path id="SvgjsPath1067" d="M0 0H0V0H0V0Z " fill="#ffffff" transform="translate(0 0)"></path><text id="SvgjsText1068" font-family="Microsoft Yahei,SimSun" fill="#000000" font-size="13" font-weight="normal" font-style="normal" text-anchor="middle" text-decoration="blink" x="0" y="0"></text></g></g><g id="SvgjsG1069"><path id="SvgjsPath1070" d="M545.5 702C677 697 575.4470608325297 616 556.2360679774998 616 " stroke-dasharray="none" stroke="#00994d" stroke-width="2" fill="none" marker-end="url(#SvgjsMarker1071)"></path><g id="SvgjsG1073" transform="matrix(1 0 0 1 607.3846563093862 649)"><path id="SvgjsPath1074" d="M0 0H0V0H0V0Z " fill="#ffffff" transform="translate(0 0)"></path><text id="SvgjsText1075" font-family="Microsoft Yahei,SimSun" fill="#000000" font-size="13" font-weight="normal" font-style="normal" text-anchor="middle" text-decoration="blink" x="0" y="0"></text></g></g><g id="SvgjsG1076"><path id="SvgjsPath1077" d="M538.1809221376423 604.026060429977C661 594 554.6824317341318 531 540.2360679774998 531 " stroke-dasharray="none" stroke="#00994d" stroke-width="2" fill="none" marker-end="url(#SvgjsMarker1078)"></path><g id="SvgjsG1080" transform="matrix(1 0 0 1 590.6830356646923 555.6282575537471)"><path id="SvgjsPath1081" d="M0 0H0V0H0V0Z " fill="#ffffff" transform="translate(0 0)"></path><text id="SvgjsText1082" font-family="Microsoft Yahei,SimSun" fill="#000000" font-size="13" font-weight="normal" font-style="normal" text-anchor="middle" text-decoration="blink" x="0" y="0"></text></g></g><g id="SvgjsG1083"><path id="SvgjsPath1084" d="M525 531C647 533 561 441 540.2360679774998 441 " stroke-dasharray="none" stroke="#00994d" stroke-width="2" fill="none" marker-end="url(#SvgjsMarker1085)"></path><g id="SvgjsG1087" transform="matrix(1 0 0 1 586.1545084971875 478.625)"><path id="SvgjsPath1088" d="M0 0H0V0H0V0Z " fill="#ffffff" transform="translate(0 0)"></path><text id="SvgjsText1089" font-family="Microsoft Yahei,SimSun" fill="#000000" font-size="13" font-weight="normal" font-style="normal" text-anchor="middle" text-decoration="blink" x="0" y="0"></text></g></g><g id="SvgjsG1090"><path id="SvgjsPath1091" d="M525 441C663 441 558.2 358 540.2360679774998 358 " stroke-dasharray="none" stroke="#00994d" stroke-width="2" fill="none" marker-end="url(#SvgjsMarker1092)"></path><g id="SvgjsG1094" transform="matrix(1 0 0 1 591.1045084971876 391.375)"><path id="SvgjsPath1095" d="M0 0H0V0H0V0Z " fill="#ffffff" transform="translate(0 0)"></path><text id="SvgjsText1096" font-family="Microsoft Yahei,SimSun" fill="#000000" font-size="13" font-weight="normal" font-style="normal" text-anchor="middle" text-decoration="blink" x="0" y="0"></text></g></g><g id="SvgjsG1097"><path id="SvgjsPath1098" d="M525 358C660 339 562.6 264 540.2360679774998 264 " stroke-dasharray="none" stroke="#00994d" stroke-width="2" fill="none" marker-end="url(#SvgjsMarker1099)"></path><g id="SvgjsG1101" transform="matrix(1 0 0 1 591.6295084971875 295.75)"><path id="SvgjsPath1102" d="M0 0H0V0H0V0Z " fill="#ffffff" transform="translate(0 0)"></path><text id="SvgjsText1103" font-family="Microsoft Yahei,SimSun" fill="#000000" font-size="13" font-weight="normal" font-style="normal" text-anchor="middle" text-decoration="blink" x="0" y="0"></text></g></g><g id="SvgjsG1104" transform="translate(210 420)" opacity="1"><path id="SvgjsPath1105" d="M0 61.666666666666664L0 0L100 0L100 61.666666666666664Q75 45 50 61.666666666666664Q25 78.33333333333333 0 61.666666666666664Z " stroke-dasharray="none" stroke="#323232" stroke-width="2" fill="#ffb366" opacity="1"></path><g id="SvgjsG1106" transform="matrix(1 0 0 1 0 15.25)" fill="#ffffff"><text id="SvgjsText1107" font-family="微软雅黑,黑体,Arial,SimSun" fill="#000000" font-size="13" font-weight="normal" font-style="normal" text-anchor="middle" text-decoration="blink" x="50" y="12">捕获</text><text id="SvgjsText1108" font-family="微软雅黑,黑体,Arial,SimSun" fill="#000000" font-size="13" font-weight="normal" font-style="normal" text-anchor="middle" text-decoration="blink" x="50" y="28.25">Capture</text></g></g><g id="SvgjsG1109" transform="translate(651 436)" opacity="1"><path id="SvgjsPath1110" d="M0 61.666666666666664L0 0L100 0L100 61.666666666666664Q75 45 50 61.666666666666664Q25 78.33333333333333 0 61.666666666666664Z " stroke-dasharray="none" stroke="#323232" stroke-width="2" fill="#00994d" opacity="1"></path><g id="SvgjsG1111" transform="matrix(1 0 0 1 0 15.25)" fill="#ffffff"><text id="SvgjsText1112" font-family="微软雅黑,黑体,Arial,SimSun" fill="#ffffff" font-size="13" font-weight="normal" font-style="normal" text-anchor="middle" text-decoration="blink" x="50" y="12">冒泡</text><text id="SvgjsText1113" font-family="微软雅黑,黑体,Arial,SimSun" fill="#ffffff" font-size="13" font-weight="normal" font-style="normal" text-anchor="middle" text-decoration="blink" x="50" y="28.25">Bulbbe</text></g></g></g></g></svg>