<svg id="drawing" xmlns="http://www.w3.org/2000/svg" version="1.1" xmlns:xlink="http://www.w3.org/1999/xlink" xmlns:svgjs="http://svgjs.com/svgjs" width="865" height="810.25" viewBox="85 76 865 810.25"><defs id="SvgjsDefs1001"><marker id="SvgjsMarker1032" markerWidth="16.23606797749979" markerHeight="10.550836550532098" refX="-1" refY="3.8990363547948754" viewBox="-1 -1.3763819204711738 16.23606797749979 10.550836550532098" orient="auto" markerUnits="userSpaceOnUse"><path id="SvgjsPath1033" d="M12 3.8990363547948754L0 7.798072709589751V0Z " stroke="#ffb366" stroke-width="2" fill="#ffb366" transform="matrix(1,0,0,1,0,0)"></path></marker><marker id="SvgjsMarker1039" markerWidth="16.23606797749979" markerHeight="10.550836550532098" refX="-1" refY="3.8990363547948754" viewBox="-1 -1.3763819204711738 16.23606797749979 10.550836550532098" orient="auto" markerUnits="userSpaceOnUse"><path id="SvgjsPath1040" d="M12 3.8990363547948754L0 7.798072709589751V0Z " stroke="#ffb366" stroke-width="2" fill="#ffb366" transform="matrix(1,0,0,1,0,0)"></path></marker><marker id="SvgjsMarker1046" markerWidth="16.23606797749979" markerHeight="10.550836550532098" refX="-1" refY="3.8990363547948754" viewBox="-1 -1.3763819204711738 16.23606797749979 10.550836550532098" orient="auto" markerUnits="userSpaceOnUse"><path id="SvgjsPath1047" d="M12 3.8990363547948754L0 7.798072709589751V0Z " stroke="#ffb366" stroke-width="2" fill="#ffb366" transform="matrix(1,0,0,1,0,0)"></path></marker><marker id="SvgjsMarker1053" markerWidth="16.23606797749979" markerHeight="10.550836550532098" refX="-1" refY="3.8990363547948754" viewBox="-1 -1.3763819204711738 16.23606797749979 10.550836550532098" orient="auto" markerUnits="userSpaceOnUse"><path id="SvgjsPath1054" d="M12 3.8990363547948754L0 7.798072709589751V0Z " stroke="#ffb366" stroke-width="2" fill="#ffb366" transform="matrix(1,0,0,1,0,0)"></path></marker><marker id="SvgjsMarker1060" markerWidth="16.23606797749979" markerHeight="10.550836550532098" refX="-1" refY="3.8990363547948754" viewBox="-1 -1.3763819204711738 16.23606797749979 10.550836550532098" orient="auto" markerUnits="userSpaceOnUse"><path id="SvgjsPath1061" d="M12 3.8990363547948754L0 7.798072709589751V0Z " stroke="#00994d" stroke-width="2" fill="#00994d" transform="matrix(1,0,0,1,0,0)"></path></marker><marker id="SvgjsMarker1067" markerWidth="16.23606797749979" markerHeight="10.550836550532098" refX="-1" refY="3.8990363547948754" viewBox="-1 -1.3763819204711738 16.23606797749979 10.550836550532098" orient="auto" markerUnits="userSpaceOnUse"><path id="SvgjsPath1068" d="M12 3.8990363547948754L0 7.798072709589751V0Z " stroke="#00994d" stroke-width="2" fill="#00994d" transform="matrix(1,0,0,1,0,0)"></path></marker><marker id="SvgjsMarker1074" markerWidth="16.23606797749979" markerHeight="10.550836550532098" refX="-1" refY="3.8990363547948754" viewBox="-1 -1.3763819204711738 16.23606797749979 10.550836550532098" orient="auto" markerUnits="userSpaceOnUse"><path id="SvgjsPath1075" d="M12 3.8990363547948754L0 7.798072709589751V0Z " stroke="#00994d" stroke-width="2" fill="#00994d" transform="matrix(1,0,0,1,0,0)"></path></marker><marker id="SvgjsMarker1081" markerWidth="16.23606797749979" markerHeight="10.550836550532098" refX="-1" refY="3.8990363547948754" viewBox="-1 -1.3763819204711738 16.23606797749979 10.550836550532098" orient="auto" markerUnits="userSpaceOnUse"><path id="SvgjsPath1082" d="M12 3.8990363547948754L0 7.798072709589751V0Z " stroke="#00994d" stroke-width="2" fill="#00994d" transform="matrix(1,0,0,1,0,0)"></path></marker></defs><g id="SvgjsG1007"><path id="SvgjsPath1008" d="M85 76H950V886.25H85V76Z " fill-opacity="0" fill="none"></path><g id="SvgjsG1009"><g id="SvgjsG1010" transform="translate(439 228)" opacity="1"><path id="SvgjsPath1011" d="M20 0L131 0C157.66666666666666 0 157.66666666666666 60 131 60L20 60C-6.666666666666667 60 -6.666666666666667 0 20 0Z " stroke-dasharray="none" stroke="#323232" stroke-width="2" fill="#ffffcc" opacity="1"></path><g id="SvgjsG1012" transform="matrix(1 0 0 1 10 17.5)" fill="#ffffff"><text id="SvgjsText1013" font-family="微软雅黑,黑体,Arial,SimSun" fill="#000000" font-size="20" font-weight="bold" font-style="normal" text-anchor="middle" text-decoration="blink" x="65.5" y="18">Documnet</text></g></g><g id="SvgjsG1014" transform="translate(439 440)" opacity="1"><path id="SvgjsPath1015" d="M20 0L131 0C157.66666666666666 0 157.66666666666666 60 131 60L20 60C-6.666666666666667 60 -6.666666666666667 0 20 0Z " stroke-dasharray="none" stroke="#323232" stroke-width="2" fill="#ffffff" opacity="1"></path><g id="SvgjsG1016" transform="matrix(1 0 0 1 10 17.5)" fill="#ffffff"><text id="SvgjsText1017" font-family="微软雅黑,黑体,Arial,SimSun" fill="#000000" font-size="20" font-weight="bold" font-style="normal" text-anchor="middle" text-decoration="blink" x="65.5" y="18">&lt;body&gt;</text></g></g><g id="SvgjsG1018" transform="translate(439 334)" opacity="1"><path id="SvgjsPath1019" d="M20 0L131 0C157.66666666666666 0 157.66666666666666 60 131 60L20 60C-6.666666666666667 60 -6.666666666666667 0 20 0Z " stroke-dasharray="none" stroke="#323232" stroke-width="2" fill="#ffffff" opacity="1"></path><g id="SvgjsG1020" transform="matrix(1 0 0 1 10 17.5)" fill="#ffffff"><text id="SvgjsText1021" font-family="微软雅黑,黑体,Arial,SimSun" fill="#000000" font-size="20" font-weight="bold" font-style="normal" text-anchor="middle" text-decoration="blink" x="65.5" y="18">&lt;html&gt;</text></g></g><g id="SvgjsG1022" transform="translate(414.5 545)" opacity="1"><path id="SvgjsPath1023" d="M20 0L180 0C206.66666666666666 0 206.66666666666666 60 180 60L20 60C-6.666666666666667 60 -6.666666666666667 0 20 0Z " stroke-dasharray="none" stroke="#323232" stroke-width="2" fill="#ffffff" opacity="1"></path><g id="SvgjsG1024" transform="matrix(1 0 0 1 10 17.5)" fill="#ffffff"><text id="SvgjsText1025" font-family="微软雅黑,黑体,Arial,SimSun" fill="#000000" font-size="20" font-weight="bold" font-style="normal" text-anchor="middle" text-decoration="blink" x="90" y="18">&lt;div id="wrap"&gt;</text></g></g><g id="SvgjsG1026" transform="translate(414.5 649)" opacity="1"><path id="SvgjsPath1027" d="M20 0L180 0C206.66666666666666 0 206.66666666666666 60 180 60L20 60C-6.666666666666667 60 -6.666666666666667 0 20 0Z " stroke-dasharray="none" stroke="#323232" stroke-width="2" fill="#ffffff" opacity="1"></path><g id="SvgjsG1028" transform="matrix(1 0 0 1 10 17.5)" fill="#ffffff"><text id="SvgjsText1029" font-family="微软雅黑,黑体,Arial,SimSun" fill="#000000" font-size="20" font-weight="bold" font-style="normal" text-anchor="middle" text-decoration="blink" x="90" y="18">&lt;button id="btn"&gt;</text></g></g><g id="SvgjsG1030"><path id="SvgjsPath1031" d="M436 264C356 264 378 345 424.45324124631463 359.4690423554095 " stroke-dasharray="10 4" stroke="#ffb366" stroke-width="2" fill="none" marker-end="url(#SvgjsMarker1032)"></path><g id="SvgjsG1034" transform="matrix(1 0 0 1 382.8066551557893 298.18363029442617)"><path id="SvgjsPath1035" d="M0 0H0V0H0V0Z " fill="#ffffff" transform="translate(0 0)"></path><text id="SvgjsText1036" font-family="Microsoft Yahei,SimSun" fill="#000000" font-size="13" font-weight="normal" font-style="normal" text-anchor="middle" text-decoration="blink" x="0" y="0"></text></g></g><g id="SvgjsG1037"><path id="SvgjsPath1038" d="M437 375C380 364 374 454 424.2055512973862 466.35828955012585 " stroke-dasharray="10 4" stroke="#ffb366" stroke-width="2" fill="none" marker-end="url(#SvgjsMarker1039)"></path><g id="SvgjsG1041" transform="matrix(1 0 0 1 390.40069391217327 403.79478619376573)"><path id="SvgjsPath1042" d="M0 0H0V0H0V0Z " fill="#ffffff" transform="translate(0 0)"></path><text id="SvgjsText1043" font-family="Microsoft Yahei,SimSun" fill="#ffb366" font-size="13" font-weight="normal" font-style="normal" text-anchor="middle" text-decoration="blink" x="0" y="0"></text></g></g><g id="SvgjsG1044"><path id="SvgjsPath1045" d="M441 479C350 489 354 562 399.6039399023681 571.7991936980295 " stroke-dasharray="10 4" stroke="#ffb366" stroke-width="2" fill="none" marker-end="url(#SvgjsMarker1046)"></path><g id="SvgjsG1048" transform="matrix(1 0 0 1 369.075492487796 517.3498992122537)"><path id="SvgjsPath1049" d="M0 0H0V0H0V0Z " fill="#ffffff" transform="translate(0 0)"></path><text id="SvgjsText1050" font-family="Microsoft Yahei,SimSun" fill="#000000" font-size="13" font-weight="normal" font-style="normal" text-anchor="middle" text-decoration="blink" x="0" y="0"></text></g></g><g id="SvgjsG1051"><path id="SvgjsPath1052" d="M413 591C243 858 730 748 627.5797849188878 686.8138974840109 " stroke-dasharray="10 4" stroke="#ffb366" stroke-width="2" fill="none" marker-end="url(#SvgjsMarker1053)"></path><g id="SvgjsG1055" transform="matrix(1 0 0 1 494.94747311486094 753.8517371855014)"><path id="SvgjsPath1056" d="M0 0H0V0H0V0Z " fill="#ffffff" transform="translate(0 0)"></path><text id="SvgjsText1057" font-family="Microsoft Yahei,SimSun" fill="#000000" font-size="13" font-weight="normal" font-style="normal" text-anchor="middle" text-decoration="blink" x="0" y="0"></text></g></g><g id="SvgjsG1058"><path id="SvgjsPath1059" d="M615 679C718 670 656.1004807664527 575 629.7360679774998 575 " stroke-dasharray="none" stroke="#00994d" stroke-width="2" fill="none" marker-end="url(#SvgjsMarker1060)"></path><g id="SvgjsG1062" transform="matrix(1 0 0 1 670.8796887846073 615.5)"><path id="SvgjsPath1063" d="M0 0H0V0H0V0Z " fill="#ffffff" transform="translate(0 0)"></path><text id="SvgjsText1064" font-family="Microsoft Yahei,SimSun" fill="#009900" font-size="13" font-weight="normal" font-style="normal" text-anchor="middle" text-decoration="blink" x="0" y="0"></text></g></g><g id="SvgjsG1065"><path id="SvgjsPath1066" d="M613.0911534819268 567.0418890660015C711 562 629.9005355405143 470 605.2360679774998 470 " stroke-dasharray="none" stroke="#00994d" stroke-width="2" fill="none" marker-end="url(#SvgjsMarker1067)"></path><g id="SvgjsG1069" transform="matrix(1 0 0 1 655.1286035101213 508.50523613325026)"><path id="SvgjsPath1070" d="M0 0H0V0H0V0Z " fill="#ffffff" transform="translate(0 0)"></path><text id="SvgjsText1071" font-family="Microsoft Yahei,SimSun" fill="#000000" font-size="13" font-weight="normal" font-style="normal" text-anchor="middle" text-decoration="blink" x="0" y="0"></text></g></g><g id="SvgjsG1072"><path id="SvgjsPath1073" d="M590 462C707 451 629.2 364 605.2360679774998 364 " stroke-dasharray="none" stroke="#00994d" stroke-width="2" fill="none" marker-end="url(#SvgjsMarker1074)"></path><g id="SvgjsG1076" transform="matrix(1 0 0 1 650.4795084971876 400.75)"><path id="SvgjsPath1077" d="M0 0H0V0H0V0Z " fill="#ffffff" transform="translate(0 0)"></path><text id="SvgjsText1078" font-family="Microsoft Yahei,SimSun" fill="#000000" font-size="13" font-weight="normal" font-style="normal" text-anchor="middle" text-decoration="blink" x="0" y="0"></text></g></g><g id="SvgjsG1079"><path id="SvgjsPath1080" d="M589.0607689879512 356.69459271066773C702 355 629.4796246896418 258 605.2360679774998 258 " stroke-dasharray="none" stroke="#00994d" stroke-width="2" fill="none" marker-end="url(#SvgjsMarker1081)"></path><g id="SvgjsG1083" transform="matrix(1 0 0 1 648.5919638792972 298.58682408883345)"><path id="SvgjsPath1084" d="M0 0H0V0H0V0Z " fill="#ffffff" transform="translate(0 0)"></path><text id="SvgjsText1085" font-family="Microsoft Yahei,SimSun" fill="#000000" font-size="13" font-weight="normal" font-style="normal" text-anchor="middle" text-decoration="blink" x="0" y="0"></text></g></g><g id="SvgjsG1086" transform="translate(122 391)" opacity="1"><path id="SvgjsPath1087" d="M0 78.75L0 0L135 0L135 78.75Q101.25 56.25 67.5 78.75Q33.75 101.25 0 78.75Z " stroke-dasharray="none" stroke="#323232" stroke-width="2" fill="#ffb366" opacity="1"></path><g id="SvgjsG1088" transform="matrix(1 0 0 1 0 23)" fill="#ffffff"><text id="SvgjsText1089" font-family="微软雅黑,黑体,Arial,SimSun" fill="#000000" font-size="14" font-weight="normal" font-style="normal" text-anchor="middle" text-decoration="blink" x="67.5" y="13">事件捕获</text><text id="SvgjsText1090" font-family="微软雅黑,黑体,Arial,SimSun" fill="#000000" font-size="14" font-weight="normal" font-style="normal" text-anchor="middle" text-decoration="blink" x="67.5" y="30.5">event capturing</text></g></g><g id="SvgjsG1091" transform="translate(795 394)" opacity="1"><path id="SvgjsPath1092" d="M0 78.75L0 0L135 0L135 78.75Q101.25 56.25 67.5 78.75Q33.75 101.25 0 78.75Z " stroke-dasharray="none" stroke="#323232" stroke-width="2" fill="#00994d" opacity="1"></path><g id="SvgjsG1093" transform="matrix(1 0 0 1 0 23)" fill="#ffffff"><text id="SvgjsText1094" font-family="微软雅黑,黑体,Arial,SimSun" fill="#ffffff" font-size="14" font-weight="normal" font-style="normal" text-anchor="middle" text-decoration="blink" x="67.5" y="13">事件冒泡</text><text id="SvgjsText1095" font-family="微软雅黑,黑体,Arial,SimSun" fill="#ffffff" font-size="14" font-weight="normal" font-style="normal" text-anchor="middle" text-decoration="blink" x="67.5" y="30.5">event bubbling</text></g></g><g id="SvgjsG1096" transform="translate(105 96)" opacity="1"><path id="SvgjsPath1097" d="M0 0L211 0L0 0M0 52L211 52L0 52Z " stroke-dasharray="none" stroke="#323232" stroke-width="2" fill="#ffffff" opacity="1"></path><path id="SvgjsPath1098" d="M0 0L211 0L211 52L0 52L0 0Z " stroke-dasharray="none" stroke-width="0" stroke="#323232" fill="none" opacity="1"></path><g id="SvgjsG1099" transform="matrix(1 0 0 1 10 17.875)" fill="#ffffff"><text id="SvgjsText1100" font-family="微软雅黑,黑体,Arial,SimSun" fill="#000000" font-size="13" font-weight="normal" font-style="normal" text-anchor="middle" text-decoration="blink" x="95.5" y="12">"DOM2级事件"规范中的事件流</text></g></g><g id="SvgjsG1101" transform="translate(574 765)" opacity="1"><path id="SvgjsPath1102" d="M0 78.75L0 0L135 0L135 78.75Q101.25 56.25 67.5 78.75Q33.75 101.25 0 78.75Z " stroke-dasharray="none" stroke="#323232" stroke-width="2" fill="#00994d" opacity="1"></path><g id="SvgjsG1103" transform="matrix(1 0 0 1 0 23)" fill="#ffffff"><text id="SvgjsText1104" font-family="微软雅黑,黑体,Arial,SimSun" fill="#ffffff" font-size="14" font-weight="normal" font-style="normal" text-anchor="middle" text-decoration="blink" x="67.5" y="13">目标阶段</text><text id="SvgjsText1105" font-family="微软雅黑,黑体,Arial,SimSun" fill="#ffffff" font-size="14" font-weight="normal" font-style="normal" text-anchor="middle" text-decoration="blink" x="67.5" y="30.5">Target Phase</text></g></g><g id="SvgjsG1106" transform="translate(372.5 220)" opacity="1"><path id="SvgjsPath1107" d="M0 21C0 -7 42 -7 42 21C42 49 0 49 0 21Z " stroke-dasharray="10 4 2 4" stroke="#323232" stroke-width="2" fill="#ffb366" opacity="1"></path><g id="SvgjsG1108" transform="matrix(1 0 0 1 10 4.125)" fill="#ffffff"><text id="SvgjsText1109" font-family="微软雅黑,黑体,Arial,SimSun" fill="#000000" font-size="27" font-weight="normal" font-style="normal" text-anchor="middle" text-decoration="blink" x="11" y="24">1</text></g></g><g id="SvgjsG1110" transform="translate(336 442)" opacity="1"><path id="SvgjsPath1111" d="M0 21C0 -7 42 -7 42 21C42 49 0 49 0 21Z " stroke-dasharray="10 4 2 4" stroke="#323232" stroke-width="2" fill="#ffb366" opacity="1"></path><g id="SvgjsG1112" transform="matrix(1 0 0 1 10 4.125)" fill="#ffffff"><text id="SvgjsText1113" font-family="微软雅黑,黑体,Arial,SimSun" fill="#000000" font-size="27" font-weight="normal" font-style="normal" text-anchor="middle" text-decoration="blink" x="11" y="24">3</text></g></g><g id="SvgjsG1114" transform="translate(345 337)" opacity="1"><path id="SvgjsPath1115" d="M0 21C0 -7 42 -7 42 21C42 49 0 49 0 21Z " stroke-dasharray="10 4 2 4" stroke="#323232" stroke-width="2" fill="#ffb366" opacity="1"></path><g id="SvgjsG1116" transform="matrix(1 0 0 1 10 4.125)" fill="#ffffff"><text id="SvgjsText1117" font-family="微软雅黑,黑体,Arial,SimSun" fill="#000000" font-size="27" font-weight="normal" font-style="normal" text-anchor="middle" text-decoration="blink" x="11" y="24">2</text></g></g><g id="SvgjsG1118" transform="translate(657 679)" opacity="1"><path id="SvgjsPath1119" d="M0 21C0 -7 42 -7 42 21C42 49 0 49 0 21Z " stroke-dasharray="none" stroke="#323232" stroke-width="2" fill="#00994d" opacity="1"></path><g id="SvgjsG1120" transform="matrix(1 0 0 1 10 4.125)" fill="#ffffff"><text id="SvgjsText1121" font-family="微软雅黑,黑体,Arial,SimSun" fill="#ffffff" font-size="27" font-weight="normal" font-style="normal" text-anchor="middle" text-decoration="blink" x="11" y="24">5</text></g></g><g id="SvgjsG1122" transform="translate(663 343)" opacity="1"><path id="SvgjsPath1123" d="M0 21C0 -7 42 -7 42 21C42 49 0 49 0 21Z " stroke-dasharray="none" stroke="#323232" stroke-width="2" fill="#00994d" opacity="1"></path><g id="SvgjsG1124" transform="matrix(1 0 0 1 10 4.125)" fill="#ffffff"><text id="SvgjsText1125" font-family="微软雅黑,黑体,Arial,SimSun" fill="#ffffff" font-size="27" font-weight="normal" font-style="normal" text-anchor="middle" text-decoration="blink" x="11" y="24">8</text></g></g><g id="SvgjsG1126" transform="translate(657 442)" opacity="1"><path id="SvgjsPath1127" d="M0 21C0 -7 42 -7 42 21C42 49 0 49 0 21Z " stroke-dasharray="none" stroke="#323232" stroke-width="2" fill="#00994d" opacity="1"></path><g id="SvgjsG1128" transform="matrix(1 0 0 1 10 4.125)" fill="#ffffff"><text id="SvgjsText1129" font-family="微软雅黑,黑体,Arial,SimSun" fill="#ffffff" font-size="27" font-weight="normal" font-style="normal" text-anchor="middle" text-decoration="blink" x="11" y="24">7</text></g></g><g id="SvgjsG1130" transform="translate(667 551)" opacity="1"><path id="SvgjsPath1131" d="M0 21C0 -7 42 -7 42 21C42 49 0 49 0 21Z " stroke-dasharray="none" stroke="#323232" stroke-width="2" fill="#00994d" opacity="1"></path><g id="SvgjsG1132" transform="matrix(1 0 0 1 10 4.125)" fill="#ffffff"><text id="SvgjsText1133" font-family="微软雅黑,黑体,Arial,SimSun" fill="#ffffff" font-size="27" font-weight="normal" font-style="normal" text-anchor="middle" text-decoration="blink" x="11" y="24">6</text></g></g><g id="SvgjsG1134" transform="translate(327 573)" opacity="1"><path id="SvgjsPath1135" d="M0 21C0 -7 42 -7 42 21C42 49 0 49 0 21Z " stroke-dasharray="10 4 2 4" stroke="#323232" stroke-width="2" fill="#ffb366" opacity="1"></path><g id="SvgjsG1136" transform="matrix(1 0 0 1 10 4.125)" fill="#ffffff"><text id="SvgjsText1137" font-family="微软雅黑,黑体,Arial,SimSun" fill="#000000" font-size="27" font-weight="normal" font-style="normal" text-anchor="middle" text-decoration="blink" x="11" y="24">4</text></g></g><g id="SvgjsG1138" transform="translate(636 220)" opacity="1"><path id="SvgjsPath1139" d="M0 21C0 -7 42 -7 42 21C42 49 0 49 0 21Z " stroke-dasharray="none" stroke="#323232" stroke-width="2" fill="#00994d" opacity="1"></path><g id="SvgjsG1140" transform="matrix(1 0 0 1 10 4.125)" fill="#ffffff"><text id="SvgjsText1141" font-family="微软雅黑,黑体,Arial,SimSun" fill="#ffffff" font-size="27" font-weight="normal" font-style="normal" text-anchor="middle" text-decoration="blink" x="11" y="24">9</text></g></g></g></g></svg>