<svg id="drawing" xmlns="http://www.w3.org/2000/svg" version="1.1" xmlns:xlink="http://www.w3.org/1999/xlink" xmlns:svgjs="http://svgjs.com/svgjs" width="800" height="805.25" viewBox="99 82 800 805.25"><defs id="SvgjsDefs1001"><marker id="SvgjsMarker1036" markerWidth="16.23606797749979" markerHeight="10.550836550532098" refX="-1" refY="3.8990363547948754" viewBox="-1 -1.3763819204711738 16.23606797749979 10.550836550532098" orient="auto" markerUnits="userSpaceOnUse"><path id="SvgjsPath1037" d="M12 3.8990363547948754L0 7.798072709589751V0Z " stroke="#ffb366" stroke-width="2" fill="#ffb366" transform="matrix(1,0,0,1,0,0)"></path></marker><marker id="SvgjsMarker1043" markerWidth="16.23606797749979" markerHeight="10.550836550532098" refX="-1" refY="3.8990363547948754" viewBox="-1 -1.3763819204711738 16.23606797749979 10.550836550532098" orient="auto" markerUnits="userSpaceOnUse"><path id="SvgjsPath1044" d="M12 3.8990363547948754L0 7.798072709589751V0Z " stroke="#ffb366" stroke-width="2" fill="#ffb366" transform="matrix(1,0,0,1,0,0)"></path></marker><marker id="SvgjsMarker1050" markerWidth="16.23606797749979" markerHeight="10.550836550532098" refX="-1" refY="3.8990363547948754" viewBox="-1 -1.3763819204711738 16.23606797749979 10.550836550532098" orient="auto" markerUnits="userSpaceOnUse"><path id="SvgjsPath1051" d="M12 3.8990363547948754L0 7.798072709589751V0Z " stroke="#ffb366" stroke-width="2" fill="#ffb366" transform="matrix(1,0,0,1,0,0)"></path></marker><marker id="SvgjsMarker1057" markerWidth="16.23606797749979" markerHeight="10.550836550532098" refX="-1" refY="3.8990363547948754" viewBox="-1 -1.3763819204711738 16.23606797749979 10.550836550532098" orient="auto" markerUnits="userSpaceOnUse"><path id="SvgjsPath1058" d="M12 3.8990363547948754L0 7.798072709589751V0Z " stroke="#ffb366" stroke-width="2" fill="#ffb366" transform="matrix(1,0,0,1,0,0)"></path></marker><marker id="SvgjsMarker1064" markerWidth="16.23606797749979" markerHeight="10.550836550532098" refX="-1" refY="3.8990363547948754" viewBox="-1 -1.3763819204711738 16.23606797749979 10.550836550532098" orient="auto" markerUnits="userSpaceOnUse"><path id="SvgjsPath1065" d="M12 3.8990363547948754L0 7.798072709589751V0Z " stroke="#ffb366" stroke-width="2" fill="#ffb366" transform="matrix(1,0,0,1,0,0)"></path></marker><marker id="SvgjsMarker1071" markerWidth="16.23606797749979" markerHeight="10.550836550532098" refX="-1" refY="3.8990363547948754" viewBox="-1 -1.3763819204711738 16.23606797749979 10.550836550532098" orient="auto" markerUnits="userSpaceOnUse"><path id="SvgjsPath1072" d="M12 3.8990363547948754L0 7.798072709589751V0Z " stroke="#00994d" stroke-width="2" fill="#00994d" transform="matrix(1,0,0,1,0,0)"></path></marker><marker id="SvgjsMarker1078" markerWidth="16.23606797749979" markerHeight="10.550836550532098" refX="-1" refY="3.8990363547948754" viewBox="-1 -1.3763819204711738 16.23606797749979 10.550836550532098" orient="auto" markerUnits="userSpaceOnUse"><path id="SvgjsPath1079" d="M12 3.8990363547948754L0 7.798072709589751V0Z " stroke="#00994d" stroke-width="2" fill="#00994d" transform="matrix(1,0,0,1,0,0)"></path></marker><marker id="SvgjsMarker1085" markerWidth="16.23606797749979" markerHeight="10.550836550532098" refX="-1" refY="3.8990363547948754" viewBox="-1 -1.3763819204711738 16.23606797749979 10.550836550532098" orient="auto" markerUnits="userSpaceOnUse"><path id="SvgjsPath1086" d="M12 3.8990363547948754L0 7.798072709589751V0Z " stroke="#00994d" stroke-width="2" fill="#00994d" transform="matrix(1,0,0,1,0,0)"></path></marker><marker id="SvgjsMarker1092" markerWidth="16.23606797749979" markerHeight="10.550836550532098" refX="-1" refY="3.8990363547948754" viewBox="-1 -1.3763819204711738 16.23606797749979 10.550836550532098" orient="auto" markerUnits="userSpaceOnUse"><path id="SvgjsPath1093" d="M12 3.8990363547948754L0 7.798072709589751V0Z " stroke="#00994d" stroke-width="2" fill="#00994d" transform="matrix(1,0,0,1,0,0)"></path></marker><marker id="SvgjsMarker1099" markerWidth="16.23606797749979" markerHeight="10.550836550532098" refX="-1" refY="3.8990363547948754" viewBox="-1 -1.3763819204711738 16.23606797749979 10.550836550532098" orient="auto" markerUnits="userSpaceOnUse"><path id="SvgjsPath1100" d="M12 3.8990363547948754L0 7.798072709589751V0Z " stroke="#00994d" stroke-width="2" fill="#00994d" transform="matrix(1,0,0,1,0,0)"></path></marker></defs><g id="SvgjsG1007"><path id="SvgjsPath1008" d="M99 82H899V887.25H99V82Z " fill-opacity="0" fill="none"></path><g id="SvgjsG1009"><g id="SvgjsG1010" transform="translate(439 119)" opacity="1"><path id="SvgjsPath1011" d="M20 0L131 0C157.66666666666666 0 157.66666666666666 60 131 60L20 60C-6.666666666666667 60 -6.666666666666667 0 20 0Z " stroke-dasharray="none" stroke="#323232" stroke-width="2" fill="#ffffcc" opacity="1"></path><g id="SvgjsG1012" transform="matrix(1 0 0 1 10 17.5)" fill="#ffffff"><text id="SvgjsText1013" font-family="微软雅黑,黑体,Arial,SimSun" fill="#000000" font-size="20" font-weight="bold" font-style="normal" text-anchor="middle" text-decoration="blink" x="65.5" y="18">Window</text></g></g><g id="SvgjsG1014" transform="translate(439 228)" opacity="1"><path id="SvgjsPath1015" d="M20 0L131 0C157.66666666666666 0 157.66666666666666 60 131 60L20 60C-6.666666666666667 60 -6.666666666666667 0 20 0Z " stroke-dasharray="none" stroke="#323232" stroke-width="2" fill="#ffffff" opacity="1"></path><g id="SvgjsG1016" transform="matrix(1 0 0 1 10 17.5)" fill="#ffffff"><text id="SvgjsText1017" font-family="微软雅黑,黑体,Arial,SimSun" fill="#000000" font-size="20" font-weight="bold" font-style="normal" text-anchor="middle" text-decoration="blink" x="65.5" y="18">Documnet</text></g></g><g id="SvgjsG1018" transform="translate(439 440)" opacity="1"><path id="SvgjsPath1019" d="M20 0L131 0C157.66666666666666 0 157.66666666666666 60 131 60L20 60C-6.666666666666667 60 -6.666666666666667 0 20 0Z " stroke-dasharray="none" stroke="#323232" stroke-width="2" fill="#ffffff" opacity="1"></path><g id="SvgjsG1020" transform="matrix(1 0 0 1 10 17.5)" fill="#ffffff"><text id="SvgjsText1021" font-family="微软雅黑,黑体,Arial,SimSun" fill="#000000" font-size="20" font-weight="bold" font-style="normal" text-anchor="middle" text-decoration="blink" x="65.5" y="18">&lt;body&gt;</text></g></g><g id="SvgjsG1022" transform="translate(439 334)" opacity="1"><path id="SvgjsPath1023" d="M20 0L131 0C157.66666666666666 0 157.66666666666666 60 131 60L20 60C-6.666666666666667 60 -6.666666666666667 0 20 0Z " stroke-dasharray="none" stroke="#323232" stroke-width="2" fill="#ffffff" opacity="1"></path><g id="SvgjsG1024" transform="matrix(1 0 0 1 10 17.5)" fill="#ffffff"><text id="SvgjsText1025" font-family="微软雅黑,黑体,Arial,SimSun" fill="#000000" font-size="20" font-weight="bold" font-style="normal" text-anchor="middle" text-decoration="blink" x="65.5" y="18">&lt;html&gt;</text></g></g><g id="SvgjsG1026" transform="translate(414.5 545)" opacity="1"><path id="SvgjsPath1027" d="M20 0L180 0C206.66666666666666 0 206.66666666666666 60 180 60L20 60C-6.666666666666667 60 -6.666666666666667 0 20 0Z " stroke-dasharray="none" stroke="#323232" stroke-width="2" fill="#ffffff" opacity="1"></path><g id="SvgjsG1028" transform="matrix(1 0 0 1 10 17.5)" fill="#ffffff"><text id="SvgjsText1029" font-family="微软雅黑,黑体,Arial,SimSun" fill="#000000" font-size="20" font-weight="bold" font-style="normal" text-anchor="middle" text-decoration="blink" x="90" y="18">&lt;div id="wrap"&gt;</text></g></g><g id="SvgjsG1030" transform="translate(414.5 649)" opacity="1"><path id="SvgjsPath1031" d="M20 0L180 0C206.66666666666666 0 206.66666666666666 60 180 60L20 60C-6.666666666666667 60 -6.666666666666667 0 20 0Z " stroke-dasharray="none" stroke="#323232" stroke-width="2" fill="#ffffff" opacity="1"></path><g id="SvgjsG1032" transform="matrix(1 0 0 1 10 17.5)" fill="#ffffff"><text id="SvgjsText1033" font-family="微软雅黑,黑体,Arial,SimSun" fill="#000000" font-size="20" font-weight="bold" font-style="normal" text-anchor="middle" text-decoration="blink" x="90" y="18">&lt;button id="btn"&gt;</text></g></g><g id="SvgjsG1034"><path id="SvgjsPath1035" d="M436 151C348 159 383 247 424.04962626769924 255.06331944544092 " stroke-dasharray="10 4" stroke="#ffb366" stroke-width="2" fill="none" marker-end="url(#SvgjsMarker1036)"></path><g id="SvgjsG1038" transform="matrix(1 0 0 1 381.6312032834624 194.8829149306801)"><path id="SvgjsPath1039" d="M0 0H0V0H0V0Z " fill="#ffffff" transform="translate(0 0)"></path><text id="SvgjsText1040" font-family="Microsoft Yahei,SimSun" fill="#000000" font-size="13" font-weight="normal" font-style="normal" text-anchor="middle" text-decoration="blink" x="0" y="0"></text></g></g><g id="SvgjsG1041"><path id="SvgjsPath1042" d="M436 264C356 264 378 345 424.45324124631463 359.4690423554095 " stroke-dasharray="10 4" stroke="#ffb366" stroke-width="2" fill="none" marker-end="url(#SvgjsMarker1043)"></path><g id="SvgjsG1045" transform="matrix(1 0 0 1 382.8066551557893 298.18363029442617)"><path id="SvgjsPath1046" d="M0 0H0V0H0V0Z " fill="#ffffff" transform="translate(0 0)"></path><text id="SvgjsText1047" font-family="Microsoft Yahei,SimSun" fill="#000000" font-size="13" font-weight="normal" font-style="normal" text-anchor="middle" text-decoration="blink" x="0" y="0"></text></g></g><g id="SvgjsG1048"><path id="SvgjsPath1049" d="M437 375C380 364 374 454 424.2055512973862 466.35828955012585 " stroke-dasharray="10 4" stroke="#ffb366" stroke-width="2" fill="none" marker-end="url(#SvgjsMarker1050)"></path><g id="SvgjsG1052" transform="matrix(1 0 0 1 390.40069391217327 403.79478619376573)"><path id="SvgjsPath1053" d="M0 0H0V0H0V0Z " fill="#ffffff" transform="translate(0 0)"></path><text id="SvgjsText1054" font-family="Microsoft Yahei,SimSun" fill="#ffb366" font-size="13" font-weight="normal" font-style="normal" text-anchor="middle" text-decoration="blink" x="0" y="0"></text></g></g><g id="SvgjsG1055"><path id="SvgjsPath1056" d="M441 479C350 489 354 562 399.6039399023681 571.7991936980295 " stroke-dasharray="10 4" stroke="#ffb366" stroke-width="2" fill="none" marker-end="url(#SvgjsMarker1057)"></path><g id="SvgjsG1059" transform="matrix(1 0 0 1 369.075492487796 517.3498992122537)"><path id="SvgjsPath1060" d="M0 0H0V0H0V0Z " fill="#ffffff" transform="translate(0 0)"></path><text id="SvgjsText1061" font-family="Microsoft Yahei,SimSun" fill="#000000" font-size="13" font-weight="normal" font-style="normal" text-anchor="middle" text-decoration="blink" x="0" y="0"></text></g></g><g id="SvgjsG1062"><path id="SvgjsPath1063" d="M413 591C328 591 358 668 399.5447304122588 676.0883545935371 " stroke-dasharray="10 4" stroke="#ffb366" stroke-width="2" fill="none" marker-end="url(#SvgjsMarker1064)"></path><g id="SvgjsG1066" transform="matrix(1 0 0 1 358.8180913015324 622.3860443241922)"><path id="SvgjsPath1067" d="M0 0H0V0H0V0Z " fill="#ffffff" transform="translate(0 0)"></path><text id="SvgjsText1068" font-family="Microsoft Yahei,SimSun" fill="#000000" font-size="13" font-weight="normal" font-style="normal" text-anchor="middle" text-decoration="blink" x="0" y="0"></text></g></g><g id="SvgjsG1069"><path id="SvgjsPath1070" d="M615 679C700 676 656.1004807664527 575 629.7360679774998 575 " stroke-dasharray="none" stroke="#00994d" stroke-width="2" fill="none" marker-end="url(#SvgjsMarker1071)"></path><g id="SvgjsG1073" transform="matrix(1 0 0 1 664.1296887846073 617.75)"><path id="SvgjsPath1074" d="M0 0H0V0H0V0Z " fill="#ffffff" transform="translate(0 0)"></path><text id="SvgjsText1075" font-family="Microsoft Yahei,SimSun" fill="#009900" font-size="13" font-weight="normal" font-style="normal" text-anchor="middle" text-decoration="blink" x="0" y="0"></text></g></g><g id="SvgjsG1076"><path id="SvgjsPath1077" d="M613.0911534819268 567.0418890660015C711 562 629.9005355405143 470 605.2360679774998 470 " stroke-dasharray="none" stroke="#00994d" stroke-width="2" fill="none" marker-end="url(#SvgjsMarker1078)"></path><g id="SvgjsG1080" transform="matrix(1 0 0 1 655.1286035101213 508.50523613325026)"><path id="SvgjsPath1081" d="M0 0H0V0H0V0Z " fill="#ffffff" transform="translate(0 0)"></path><text id="SvgjsText1082" font-family="Microsoft Yahei,SimSun" fill="#000000" font-size="13" font-weight="normal" font-style="normal" text-anchor="middle" text-decoration="blink" x="0" y="0"></text></g></g><g id="SvgjsG1083"><path id="SvgjsPath1084" d="M590 462C707 451 629.2 364 605.2360679774998 364 " stroke-dasharray="none" stroke="#00994d" stroke-width="2" fill="none" marker-end="url(#SvgjsMarker1085)"></path><g id="SvgjsG1087" transform="matrix(1 0 0 1 650.4795084971876 400.75)"><path id="SvgjsPath1088" d="M0 0H0V0H0V0Z " fill="#ffffff" transform="translate(0 0)"></path><text id="SvgjsText1089" font-family="Microsoft Yahei,SimSun" fill="#000000" font-size="13" font-weight="normal" font-style="normal" text-anchor="middle" text-decoration="blink" x="0" y="0"></text></g></g><g id="SvgjsG1090"><path id="SvgjsPath1091" d="M589.0607689879512 356.69459271066773C702 355 629.4796246896418 258 605.2360679774998 258 " stroke-dasharray="none" stroke="#00994d" stroke-width="2" fill="none" marker-end="url(#SvgjsMarker1092)"></path><g id="SvgjsG1094" transform="matrix(1 0 0 1 648.5919638792972 298.58682408883345)"><path id="SvgjsPath1095" d="M0 0H0V0H0V0Z " fill="#ffffff" transform="translate(0 0)"></path><text id="SvgjsText1096" font-family="Microsoft Yahei,SimSun" fill="#000000" font-size="13" font-weight="normal" font-style="normal" text-anchor="middle" text-decoration="blink" x="0" y="0"></text></g></g><g id="SvgjsG1097"><path id="SvgjsPath1098" d="M589.0038053019082 250.08715574274765C688 241 630.4368257112944 149 605.2360679774998 149 " stroke-dasharray="none" stroke="#00994d" stroke-width="2" fill="none" marker-end="url(#SvgjsMarker1099)"></path><g id="SvgjsG1101" transform="matrix(1 0 0 1 643.6937938016614 188.01089446784346)"><path id="SvgjsPath1102" d="M0 0H0V0H0V0Z " fill="#ffffff" transform="translate(0 0)"></path><text id="SvgjsText1103" font-family="Microsoft Yahei,SimSun" fill="#000000" font-size="13" font-weight="normal" font-style="normal" text-anchor="middle" text-decoration="blink" x="0" y="0"></text></g></g><g id="SvgjsG1104" transform="translate(181 334)" opacity="1"><path id="SvgjsPath1105" d="M0 78.75L0 0L135 0L135 78.75Q101.25 56.25 67.5 78.75Q33.75 101.25 0 78.75Z " stroke-dasharray="none" stroke="#323232" stroke-width="2" fill="#ffb366" opacity="1"></path><g id="SvgjsG1106" transform="matrix(1 0 0 1 0 23)" fill="#ffffff"><text id="SvgjsText1107" font-family="微软雅黑,黑体,Arial,SimSun" fill="#000000" font-size="14" font-weight="normal" font-style="normal" text-anchor="middle" text-decoration="blink" x="67.5" y="13">事件捕获</text><text id="SvgjsText1108" font-family="微软雅黑,黑体,Arial,SimSun" fill="#000000" font-size="14" font-weight="normal" font-style="normal" text-anchor="middle" text-decoration="blink" x="67.5" y="30.5">event capturing</text></g></g><g id="SvgjsG1109" transform="translate(744 334)" opacity="1"><path id="SvgjsPath1110" d="M0 78.75L0 0L135 0L135 78.75Q101.25 56.25 67.5 78.75Q33.75 101.25 0 78.75Z " stroke-dasharray="none" stroke="#323232" stroke-width="2" fill="#00994d" opacity="1"></path><g id="SvgjsG1111" transform="matrix(1 0 0 1 0 23)" fill="#ffffff"><text id="SvgjsText1112" font-family="微软雅黑,黑体,Arial,SimSun" fill="#ffffff" font-size="14" font-weight="normal" font-style="normal" text-anchor="middle" text-decoration="blink" x="67.5" y="13">事件冒泡</text><text id="SvgjsText1113" font-family="微软雅黑,黑体,Arial,SimSun" fill="#ffffff" font-size="14" font-weight="normal" font-style="normal" text-anchor="middle" text-decoration="blink" x="67.5" y="30.5">event bubbling</text></g></g><g id="SvgjsG1114" transform="translate(119 102)" opacity="1"><path id="SvgjsPath1115" d="M0 0L155 0L0 0M0 55L155 55L0 55Z " stroke-dasharray="none" stroke="#323232" stroke-width="2" fill="#ffffff" opacity="1"></path><path id="SvgjsPath1116" d="M0 0L155 0L155 55L0 55L0 0Z " stroke-dasharray="none" stroke-width="0" stroke="#323232" fill="none" opacity="1"></path><g id="SvgjsG1117" transform="matrix(1 0 0 1 10 19.375)" fill="#ffffff"><text id="SvgjsText1118" font-family="微软雅黑,黑体,Arial,SimSun" fill="#000000" font-size="13" font-weight="normal" font-style="normal" text-anchor="middle" text-decoration="blink" x="67.5" y="12">现代浏览器中的事件流</text></g></g><g id="SvgjsG1119" transform="translate(460 766)" opacity="1"><path id="SvgjsPath1120" d="M0 78.75L0 0L135 0L135 78.75Q101.25 56.25 67.5 78.75Q33.75 101.25 0 78.75Z " stroke-dasharray="none" stroke="#323232" stroke-width="2" fill="#00994d" opacity="1"></path><g id="SvgjsG1121" transform="matrix(1 0 0 1 0 23)" fill="#ffffff"><text id="SvgjsText1122" font-family="微软雅黑,黑体,Arial,SimSun" fill="#ffffff" font-size="14" font-weight="normal" font-style="normal" text-anchor="middle" text-decoration="blink" x="67.5" y="13">目标阶段</text><text id="SvgjsText1123" font-family="微软雅黑,黑体,Arial,SimSun" fill="#ffffff" font-size="14" font-weight="normal" font-style="normal" text-anchor="middle" text-decoration="blink" x="67.5" y="30.5">Target Phase</text></g></g></g></g></svg>